<svg width="160" height="160" viewBox="0 0 160 160" xmlns="http://www.w3.org/2000/svg" ><title>summary_icon</title>
<g id="7b08ce25-c950-4b76-9668-27d042af0f61"><path d="M147.7.25H11.85A12.11,12.11,0,0,0-.23,12.32V148.17a12.12,12.12,0,0,0,12.08,12.08H147.7a12.11,12.11,0,0,0,12.07-12.08V12.32A12.1,12.1,0,0,0,147.7.25ZM22.92,27.42a6,6,0,1,1-6,6A6,6,0,0,1,22.92,27.42Zm0,31.19h96.6a6,6,0,1,1,0,12.08H22.92a6,6,0,0,1,0-12.08Zm0,31.2a6,6,0,1,1-6,6A6,6,0,0,1,22.92,89.81Zm96.6,43.27H22.92a6,6,0,1,1,0-12.08h96.6a6,6,0,0,1,0,12.08Zm17.11,0a6,6,0,1,1,6-6A6,6,0,0,1,136.63,133.08Zm0-31.2H40a6,6,0,0,1,0-12.07h96.61a6,6,0,1,1,0,12.07Zm0-31.19a6,6,0,1,1,6-6A6,6,0,0,1,136.63,70.69Zm0-31.2H40a6,6,0,0,1,0-12.07h96.61a6,6,0,1,1,0,12.07Z" fill="#cce1e0"/></g></svg>